# xmcd
#
# Track frame offsets:
#	150
#	14353
#	30669
#	44373
#	58252
#	75198
#	93540
#	108629
#	120102
#	133792
#	147893
#	162762
#	176936
#	194634
#	210679
#	229076
#	245819
#	262462
#	278830
#
# Disc length: 3984 seconds
#
# Revision: 0
# Processed by: cddbd v1.5.2PL0 Copyright (c) Steve Scherf et al.
# Submitted via: EasyCDDAExtractor 15.3.0.1
#
DISCID=1b0f8e13
DTITLE=Baruni - Zlatna Kolekcija
DYEAR=2012
DGENRE=Country
TTITLE0=BLAGO ONOM, TKO RANO POLUDI ( P ) 1996.
TTITLE1=NEKA PATI KOGA SMETA ( P ) 1998.
TTITLE2=ĆA BI ĆA BI ABU DABI ( P ) 1997.
TTITLE3=MARISOL ( P ) 1997.
TTITLE4=MONIKA ( P ) 1998.
TTITLE5=NEKA , NEKA ( P ) 1999.
TTITLE6=NEĆE SAN NA OČI ( P ) 1999.
TTITLE7=AKO ODEŠ ( P ) 1996.
TTITLE8=SAMO DA TE NE SRETNEM ( P ) 1996.
TTITLE9=NITKO MENE NIJE TJERAO ( P ) 1998.
TTITLE10=NIKAD NISI MENE VOLJELA ( P ) 1998.
TTITLE11=OD ZAGREBA DO LJUBLJANE ( P ) 1999.
TTITLE12=ZASPALA ( P ) 1999.
TTITLE13=HEJ,RAVNICO ( P ) 1999.
TTITLE14=CIRKUS ( P ) 1999.
TTITLE15=PROLAZI DOBAR DAN ( P ) 1999.
TTITLE16=PADA SNIJEG, ANA [ Instrumental ] ( P ) 1996.
TTITLE17=A TEBE MOLIM, VRATI SE [ Instrumental ] ( P ) 1997.
TTITLE18=JER LJUBAV NIJE ZA MENE [ Instrumental ] ( P ) 1998.
EXTD=
EXTT0=
EXTT1=
EXTT2=
EXTT3=
EXTT4=
EXTT5=
EXTT6=
EXTT7=
EXTT8=
EXTT9=
EXTT10=
EXTT11=
EXTT12=
EXTT13=
EXTT14=
EXTT15=
EXTT16=
EXTT17=
EXTT18=
PLAYORDER=
